<svg width="35" height="23" viewBox="0 0 35 23" fill="none" xmlns="http://www.w3.org/2000/svg">
<g clip-path="url(#clip0_141_1275)">
<path d="M17.2354 1.86864L32.2446 6.84789L17.2354 11.8271L2.22608 6.84789L17.2354 1.86864Z" stroke="#EE8814" stroke-width="2" stroke-linejoin="bevel"/>
<path d="M17.2354 5.39279L19.5499 6.16064L17.2354 6.92849L14.9208 6.16064L17.2354 5.39279Z" stroke="#EE8814" stroke-width="2" stroke-linejoin="bevel"/>
<path d="M8.13818 9.33289L8.13818 18.6417C8.13818 18.6417 10.5874 20.9957 17.2352 20.9957C23.883 20.9957 26.3322 18.6417 26.3322 18.6417V9.33289" stroke="#EE8814" stroke-width="2" stroke-linejoin="bevel"/>
<path d="M22.3814 9.45H23.3814L22.9393 8.62012L22.3814 9.45ZM21.3814 13.2805C21.3814 13.8327 21.8291 14.2805 22.3814 14.2805C22.9337 14.2805 23.3814 13.8327 23.3814 13.2805H21.3814ZM16.6774 6.82011L21.8234 10.2799L22.9393 8.62012L17.7933 5.16035L16.6774 6.82011ZM21.3814 9.45V13.2805H23.3814V9.45H21.3814Z" fill="#EE8814"/>
<path d="M21.0952 13.7646C21.0952 12.9917 21.7218 12.3651 22.4948 12.3651V12.3651C23.2677 12.3651 23.8943 12.9917 23.8943 13.7646V16.5637H21.0952V13.7646Z" fill="#EE8814"/>
</g>
<defs>
<clipPath id="clip0_141_1275">
<rect width="34.871" height="23" fill="white"/>
</clipPath>
</defs>
</svg>
