<svg width="24" height="23" viewBox="0 0 24 23" fill="none" xmlns="http://www.w3.org/2000/svg">
<path d="M2.29162 6.42892C3.10606 4.4782 4.65691 2.92735 6.60763 2.11291V2.11291C8.58723 1.2864 10.8152 1.2864 12.7948 2.11291V2.11291C14.7456 2.92735 16.2964 4.4782 17.1109 6.42892V6.42892C17.9374 8.40852 17.9374 10.6365 17.1109 12.6161V12.6161C16.2964 14.5668 14.7456 16.1177 12.7948 16.9321V16.9321C10.8152 17.7586 8.58723 17.7586 6.60763 16.9321V16.9321C4.65691 16.1177 3.10606 14.5668 2.29162 12.6161V12.6161C1.46511 10.6365 1.46511 8.40852 2.29162 6.42892V6.42892Z" stroke="black" stroke-width="2" stroke-linejoin="bevel"/>
<path d="M15.2383 15.0596L22.3575 22.1788" stroke="black" stroke-width="2" stroke-linejoin="bevel"/>
</svg>
