<svg width="13" height="23" viewBox="0 0 13 23" fill="none" xmlns="http://www.w3.org/2000/svg">
<path d="M1 21H0.75V21.25H1V21ZM12.1768 21.1768C12.2744 21.0791 12.2744 20.9209 12.1768 20.8232L10.5858 19.2322C10.4882 19.1346 10.3299 19.1346 10.2322 19.2322C10.1346 19.3299 10.1346 19.4882 10.2322 19.5858L11.6464 21L10.2322 22.4142C10.1346 22.5118 10.1346 22.6701 10.2322 22.7678C10.3299 22.8654 10.4882 22.8654 10.5858 22.7678L12.1768 21.1768ZM0.75 0V21H1.25V0H0.75ZM1 21.25H12V20.75H1V21.25Z" fill="#B2B2B2"/>
</svg>
